<?xml version="1.0" encoding="utf-8"?>
<!-- Generator: Adobe Illustrator 26.0.1, SVG Export Plug-In . SVG Version: 6.00 Build 0)  -->
<svg version="1.1" id="Layer_1" xmlns="http://www.w3.org/2000/svg" xmlns:xlink="http://www.w3.org/1999/xlink" x="0px" y="0px"
	 viewBox="0 0 1282.7 281.3" style="enable-background:new 0 0 1282.7 281.3;" xml:space="preserve">
<style type="text/css">
	.st0{fill:#A50050;}
	.st1{fill:#C4D600;}
	.st2{fill:#009CDE;}
	.st3{fill:#969696;}
	.st4{fill:#FFFFFF;}
</style>
<g>
	<path class="st4" d="M40.3,214.6c-1,0.4-2.9,0.7-5.6,0.9c-2.8,0.2-5.8,0.3-9.2,0.3c-3.4,0-6.6-0.3-9.6-1.1c-3.1-0.7-5.8-2-8.2-3.9
		c-2.4-1.9-4.3-4.4-5.6-7.6C0.7,200,0,195.9,0,190.9V1.2C0.4,1,2,0.7,4.7,0.5C7.5,0.2,10.5,0,13.6,0c3.2,0,6.3,0.3,9.5,0.9
		c3.2,0.6,6,1.8,8.6,3.5c2.6,1.7,4.6,4.1,6.2,7.2c1.6,3.1,2.4,7.2,2.4,12.2V214.6z"/>
	<path class="st4" d="M194.2,141.1c0,10-1.2,19.6-3.7,28.8c-2.5,9.2-6.5,17.3-12.2,24.3c-5.6,7-12.9,12.6-21.8,16.8
		c-8.9,4.2-19.7,6.3-32.3,6.3c-12.6,0-23.4-2.1-32.2-6.2c-8.8-4.1-16-9.6-21.5-16.5c-5.5-6.9-9.6-14.9-12.2-24
		c-2.6-9.1-3.9-18.7-3.9-28.7c0-10.2,1.5-19.9,4.5-29c3-9.1,7.4-17.1,13.2-24c5.8-6.9,13.2-12.3,22.1-16.4c8.9-4,19.3-6,31.1-6
		c12.4,0,23.1,2,31.9,6c8.8,4,15.9,9.4,21.3,16.2c5.4,6.8,9.4,14.7,11.9,23.7C192.9,121.6,194.2,131.1,194.2,141.1 M153.6,141.4
		c0-5.4-0.4-10.8-1.2-16.1c-0.8-5.3-2.3-10-4.4-14c-2.2-4-5.1-7.3-8.9-9.8c-3.8-2.5-8.5-3.8-14.2-3.8c-5.7,0-10.5,1.3-14.4,3.9
		c-3.9,2.6-6.9,6-9.2,10.1c-2.3,4.1-3.9,8.7-4.9,14c-1,5.2-1.5,10.5-1.5,15.9c0,5.4,0.4,10.8,1.3,16.2c0.9,5.4,2.4,10.3,4.6,14.6
		c2.2,4.3,5.2,7.8,9,10.4c3.9,2.6,8.6,3.9,14.4,3.9c5.9,0,10.8-1.3,14.7-3.9c3.8-2.6,6.9-6.1,9-10.4c2.2-4.3,3.6-9.2,4.4-14.6
		C153.2,152.5,153.6,147,153.6,141.4"/>
	<path class="st4" d="M341.2,202.1c0,11.8-1.1,22.6-3.4,32.3c-2.3,9.7-6.2,18.1-11.9,25.1c-5.6,7-13.1,12.4-22.4,16.2
		c-9.3,3.8-21,5.7-35,5.7c-11.9,0-21.6-0.9-29.2-2.7c-7.6-1.8-13.7-4-18.2-6.6c-4-2.2-6.5-4.5-7.6-6.9c-1.1-2.4-1.6-4.7-1.6-6.9
		c0-3.2,1.3-7,3.8-11.3c2.6-4.3,5.1-8.2,7.7-11.6c1.4,1.4,3.3,3,5.8,4.8c2.5,1.8,5.5,3.5,9,5.2c3.6,1.7,7.6,3.2,12,4.3
		c4.4,1.2,9.3,1.8,14.7,1.8c7.7,0,14-1,18.8-3.1c4.8-2.1,8.6-5.1,11.4-9c2.8-3.9,4.7-8.7,5.8-14.2c1.1-5.6,1.6-12,1.6-19.2v-5.4
		c-2.8,3.4-7.2,6.6-13.2,9.5c-6,2.9-13.8,4.3-23.3,4.3c-7.3,0-14.4-1.1-21.2-3.4c-6.8-2.3-12.9-6.2-18.2-11.9
		c-5.3-5.6-9.6-13-12.7-22.1c-3.2-9.1-4.7-20.4-4.7-34.1c0-13.8,1.6-25.5,4.9-35.1c3.3-9.6,7.6-17.5,13-23.6
		c5.4-6.1,11.7-10.5,18.7-13.2c7-2.7,14.4-4.1,22.1-4.1c8.9,0,16.2,1.5,21.8,4.5c5.6,3,10,6.8,13.2,11.4c1.6-4.6,4.5-7.9,8.9-9.9
		c4.3-2,9.4-3,15.1-3c1.6,0,3.3,0.1,5,0.2c1.8,0.1,3.4,0.2,4.7,0.5l4.4,0.6V202.1z M250.7,140.6c0,14,2.1,25.1,6.2,33.2
		c4.2,8.1,12,12.2,23.4,12.2c6.9,0,12.4-1.4,16.3-4.1c4-2.7,5.9-6.3,5.9-10.7v-64.2c-1.6-1.6-4.3-3.5-8.2-5.7
		c-3.9-2.2-8.4-3.3-13.5-3.3C260.8,97.9,250.7,112.2,250.7,140.6"/>
	<path class="st4" d="M526.4,87.3c0,3-0.9,6.6-2.8,10.7c-1.9,4.1-3.9,7.9-6.1,11.5c-1.8-1.4-4.2-3-7.1-4.8c-3-1.8-6.2-3.5-9.8-5
		c-3.6-1.5-7.3-2.8-11.3-3.8c-4-1-7.8-1.5-11.6-1.5c-2.2,0-4.4,0.2-6.8,0.5c-2.4,0.3-4.5,0.9-6.4,1.8c-1.9,0.9-3.5,2.2-4.7,3.9
		c-1.3,1.7-1.9,4-1.9,6.8c0,6.8,7.2,11.8,21.6,15c5.9,1.2,11.8,2.8,17.6,4.7c5.8,1.9,11.1,4.6,15.7,7.9c4.6,3.4,8.4,7.7,11.3,12.9
		c2.9,5.2,4.3,11.7,4.3,19.5c0,8-1.5,15.1-4.6,21.3c-3.1,6.2-7.3,11.4-12.6,15.6c-5.3,4.2-11.6,7.4-18.8,9.6
		c-7.2,2.2-15.1,3.3-23.6,3.3c-8.9,0-16.3-0.7-22.2-2c-5.9-1.3-10.9-2.9-14.8-4.7c-2.8-1.2-5.8-2.9-9-5.3c-3.3-2.3-4.9-5.4-4.9-9.5
		c0-3.4,1-7,3-10.6c2-3.7,4.2-7.6,6.8-11.6c1.8,1.6,4,3.3,6.7,5c2.7,1.7,5.7,3.3,9.2,4.8c3.5,1.5,7.2,2.7,11.1,3.7
		c4,1,8,1.5,12.2,1.5c2.6,0,5.2-0.2,8-0.6c2.8-0.4,5.2-1.2,7.3-2.4c2.1-1.2,3.8-2.8,5.2-4.8c1.4-2,2.1-4.6,2.1-7.8
		c0-5.8-2.2-10-6.7-12.5c-4.5-2.5-11.1-4.7-20-6.5c-5.7-1.2-11.3-2.8-16.6-4.8c-5.3-2-10.1-4.7-14.2-7.9c-4.2-3.3-7.5-7.5-9.9-12.5
		c-2.5-5-3.7-11.1-3.7-18.3c0-7.2,1.6-13.5,4.7-18.9c3.2-5.4,7.4-10,12.6-13.8c5.2-3.8,11.3-6.6,18.2-8.6c6.9-1.9,14.1-2.9,21.6-2.9
		c7.9,0,15,0.6,21.2,1.8c6.2,1.2,11.6,2.8,16.2,4.8C521.5,76.8,526,81.5,526.4,87.3"/>
	<path class="st4" d="M616.4,187c4.3,0,8.3-0.5,11.9-1.5c3.6-1,6.7-2.2,9.5-3.7c2.8-1.5,5.1-3.1,7.1-4.8c2-1.7,3.4-3.2,4.4-4.4
		c1.2,1.2,2.4,2.8,3.6,4.7c1.2,1.9,2.3,3.9,3.3,6c1,2.1,1.8,4.2,2.4,6.2c0.6,2,0.9,3.8,0.9,5.4c0,2-0.4,3.9-1.2,5.9
		c-0.8,1.9-2.5,3.8-5,5.8c-3.8,2.8-9.1,5.4-16,7.8c-6.9,2.4-15.7,3.6-26.4,3.6c-7.1,0-14.8-1-23.1-3c-8.3-2-16-5.8-23.1-11.4
		c-7.1-5.6-13-13.3-17.8-23.3c-4.7-9.9-7.1-22.9-7.1-38.9c0-15.2,2.5-27.6,7.4-37.2c4.9-9.6,11.1-17.2,18.4-22.8
		c7.3-5.6,15.1-9.5,23.3-11.6c8.2-2.1,15.6-3.1,22.1-3.1c8.3,0,15.9,0.9,22.7,2.7c6.8,1.8,12.5,4.2,17,7.2c3.7,2.4,6.4,4.7,7.8,6.9
		c1.5,2.2,2.2,4.8,2.2,7.8c0,2.8-0.9,6.3-2.7,10.4c-1.8,4.1-4.1,7.8-6.8,11.3c-3.2-3.4-7.8-6.8-13.9-10.2c-6.1-3.4-13-5.1-20.5-5.1
		c-13,0-22.3,4-27.9,12.2c-5.5,8.1-8.3,18.4-8.3,31.1c0,6.4,0.6,12.4,1.8,18c1.2,5.6,3.2,10.5,6.1,14.7c2.9,4.2,6.6,7.5,11.1,9.9
		C604,185.8,609.7,187,616.4,187"/>
	<path class="st4" d="M802.9,141.1c0,10-1.2,19.6-3.7,28.8c-2.5,9.2-6.5,17.3-12.2,24.3c-5.6,7-12.9,12.6-21.8,16.8
		c-8.9,4.2-19.7,6.3-32.3,6.3c-12.7,0-23.4-2.1-32.2-6.2c-8.8-4.1-16-9.6-21.5-16.5c-5.5-6.9-9.6-14.9-12.2-24
		c-2.6-9.1-3.9-18.7-3.9-28.7c0-10.2,1.5-19.9,4.4-29c3-9.1,7.4-17.1,13.2-24c5.8-6.9,13.2-12.3,22.1-16.4c8.9-4,19.3-6,31.1-6
		c12.5,0,23.1,2,31.9,6c8.8,4,15.9,9.4,21.3,16.2c5.4,6.8,9.4,14.7,11.9,23.7C801.7,121.6,802.9,131.1,802.9,141.1 M762.3,141.4
		c0-5.4-0.4-10.8-1.2-16.1c-0.8-5.3-2.3-10-4.5-14c-2.2-4-5.1-7.3-8.9-9.8c-3.8-2.5-8.5-3.8-14.2-3.8c-5.7,0-10.5,1.3-14.4,3.9
		c-3.9,2.6-6.9,6-9.2,10.1c-2.3,4.1-3.9,8.7-4.9,14c-1,5.2-1.5,10.5-1.5,15.9c0,5.4,0.4,10.8,1.3,16.2c0.9,5.4,2.4,10.3,4.6,14.6
		c2.2,4.3,5.2,7.8,9,10.4c3.8,2.6,8.6,3.9,14.4,3.9c5.9,0,10.8-1.3,14.7-3.9c3.8-2.6,6.9-6.1,9-10.4c2.2-4.3,3.7-9.2,4.5-14.6
		C761.9,152.5,762.3,147,762.3,141.4"/>
	<path class="st4" d="M953.8,141.1c0,10-1.2,19.6-3.7,28.8c-2.5,9.2-6.5,17.3-12.2,24.3c-5.6,7-12.9,12.6-21.8,16.8
		c-8.9,4.2-19.7,6.3-32.3,6.3c-12.7,0-23.4-2.1-32.2-6.2c-8.8-4.1-16-9.6-21.5-16.5c-5.5-6.9-9.6-14.9-12.2-24
		c-2.6-9.1-3.9-18.7-3.9-28.7c0-10.2,1.5-19.9,4.4-29c3-9.1,7.4-17.1,13.2-24c5.8-6.9,13.2-12.3,22.1-16.4c8.9-4,19.3-6,31.1-6
		c12.4,0,23.1,2,31.9,6c8.8,4,15.9,9.4,21.3,16.2c5.4,6.8,9.4,14.7,11.9,23.7C952.5,121.6,953.8,131.1,953.8,141.1 M913.2,141.4
		c0-5.4-0.4-10.8-1.2-16.1c-0.8-5.3-2.3-10-4.4-14c-2.2-4-5.2-7.3-8.9-9.8c-3.8-2.5-8.5-3.8-14.2-3.8c-5.7,0-10.5,1.3-14.4,3.9
		c-3.8,2.6-6.9,6-9.2,10.1c-2.3,4.1-3.9,8.7-4.9,14c-1,5.2-1.5,10.5-1.5,15.9c0,5.4,0.4,10.8,1.3,16.2c0.9,5.4,2.4,10.3,4.6,14.6
		c2.2,4.3,5.2,7.8,9,10.4c3.8,2.6,8.6,3.9,14.4,3.9c5.9,0,10.8-1.3,14.7-3.9c3.8-2.6,6.9-6.1,9-10.4c2.2-4.3,3.6-9.2,4.4-14.6
		C912.8,152.5,913.2,147,913.2,141.4"/>
	<path class="st4" d="M1011.3,214.6c-1,0.4-2.9,0.7-5.6,0.9c-2.8,0.2-5.8,0.3-9.2,0.3c-3.4,0-6.6-0.3-9.6-1.1
		c-3.1-0.7-5.8-2-8.2-3.9c-2.4-1.9-4.2-4.4-5.6-7.6c-1.4-3.2-2.1-7.3-2.1-12.3V1.2c0.4-0.2,2-0.5,4.7-0.7c2.8-0.3,5.7-0.5,8.9-0.5
		c3.1,0,6.3,0.3,9.5,0.9c3.2,0.6,6,1.8,8.6,3.5c2.6,1.7,4.6,4.1,6.2,7.2c1.6,3.1,2.4,7.2,2.4,12.2V214.6z"/>
	<path class="st4" d="M400.8,214.6c-0.8,0.4-2.6,0.7-5.3,0.9c-2.8,0.2-5.7,0.3-8.9,0.3c-7.7,0-14-1.6-18.8-5
		c-4.8-3.3-7.3-9.9-7.3-19.9V70.8c0.4-0.2,2-0.5,4.7-0.7c2.8-0.3,5.7-0.5,8.9-0.5c3.2,0,6.3,0.3,9.5,0.9c3.2,0.6,6,1.8,8.6,3.4
		c2.6,1.7,4.6,4.1,6.2,7.2c1.6,3.1,2.4,7.2,2.4,12.2V214.6z"/>
	<path class="st4" d="M398.4,13.7c-1.6-3.1-3.7-5.5-6.2-7.2c-2.6-1.7-5.4-2.9-8.6-3.4c-3.2-0.6-6.3-0.9-9.5-0.9
		c-3.2,0-6.1,0.2-8.9,0.4c-2.8,0.3-4.4,0.6-4.7,0.7v37.9c16.1-2,32.9-1.9,39,8c0.7,1.1,1.3,1.6,1.3-0.5V25.8
		C400.8,20.8,400,16.8,398.4,13.7"/>
	<g>
		<g>
			<path class="st4" d="M1086.4,45.9c-0.3,0.3-0.7,0.6-1.4,1.1c-0.6,0.4-1.5,0.9-2.6,1.3c-1.1,0.4-2.4,0.8-4,1.1
				c-1.5,0.3-3.3,0.5-5.3,0.5c-3.8,0-7.2-0.6-10-1.9c-2.8-1.2-5.1-2.9-6.9-5.2c-1.8-2.2-3.2-4.8-4-7.8c-0.9-3-1.3-6.3-1.3-9.9
				s0.5-6.9,1.4-10c0.9-3.1,2.3-5.7,4.2-7.9c1.8-2.2,4.2-4,6.9-5.2c2.8-1.2,6-1.9,9.8-1.9c1.8,0,3.5,0.2,5,0.5
				c1.5,0.3,2.8,0.7,3.9,1.2c1.1,0.4,2,0.9,2.8,1.4c0.7,0.5,1.3,0.9,1.7,1.3c0.4,0.4,0.8,0.8,1.1,1.3c0.3,0.5,0.5,1.1,0.5,1.7
				c0,0.9-0.4,1.9-1.1,2.8c-0.7,0.9-1.5,1.8-2.4,2.6c-0.6-0.6-1.2-1.1-1.9-1.7c-0.7-0.6-1.5-1.1-2.4-1.6c-0.9-0.5-1.9-0.8-3-1.1
				c-1.1-0.3-2.4-0.5-3.7-0.5c-2.4,0-4.4,0.5-6.1,1.5c-1.6,1-2.9,2.2-3.9,3.8c-1,1.6-1.7,3.4-2.1,5.4c-0.4,2-0.6,4.1-0.6,6.1
				c0,2.2,0.2,4.4,0.6,6.4c0.4,2,1.2,3.8,2.2,5.4c1,1.6,2.4,2.8,4.1,3.8c1.7,1,3.8,1.4,6.3,1.4c1.3,0,2.5-0.2,3.7-0.5
				c1.1-0.3,2.1-0.7,3-1.2c0.9-0.5,1.6-1,2.2-1.5c0.6-0.5,1.2-1,1.6-1.4c0.3,0.3,0.6,0.7,1,1.2c0.4,0.5,0.7,1,1.1,1.5
				c0.3,0.5,0.6,1,0.9,1.6c0.2,0.5,0.4,1,0.4,1.4c0,0.6-0.1,1.1-0.4,1.6C1087.3,44.9,1087,45.4,1086.4,45.9"/>
			<path class="st4" d="M1106.3,18.3c0.3-0.4,0.7-0.9,1.2-1.4c0.5-0.5,1.1-1,1.7-1.4c0.7-0.4,1.4-0.8,2.2-1.1
				c0.8-0.3,1.7-0.4,2.7-0.4c0.6,0,1.2,0,1.8,0.1c0.6,0.1,1.2,0.3,1.8,0.5c0.5,0.3,1,0.6,1.3,1.1c0.3,0.5,0.5,1,0.5,1.7
				c0,1-0.3,2.2-0.8,3.6c-0.5,1.4-1,2.5-1.6,3.5c-0.8-0.7-1.6-1.1-2.4-1.5c-0.8-0.3-1.8-0.5-2.8-0.5c-1.5,0-2.7,0.4-3.7,1.3
				c-1,0.8-1.5,1.9-1.5,3v21.9h-9.7V14.9l0.9-0.1c0.3-0.1,0.6-0.1,1-0.1c0.4,0,0.8,0,1.3,0c1.5,0,2.8,0.3,3.9,0.9
				C1105.4,16.1,1106.1,17,1106.3,18.3"/>
			<path class="st4" d="M1147.3,28.1c0-2.3-0.4-4.1-1.3-5.6c-0.9-1.4-2.5-2.1-4.7-2.1c-2,0-3.6,0.7-4.7,2c-1.1,1.3-1.7,3.2-1.7,5.6
				H1147.3z M1144.1,42.5c1.2,0,2.2-0.1,3.1-0.4c0.9-0.2,1.7-0.6,2.4-1c0.7-0.4,1.3-0.8,1.9-1.2s1-0.9,1.4-1.2
				c0.6,0.7,1.2,1.6,1.8,2.7c0.6,1.1,0.9,2,0.9,2.7c0,1-0.6,2-1.8,2.8c-1,0.8-2.4,1.4-4.2,2c-1.8,0.5-4,0.8-6.4,0.8
				c-2.2,0-4.4-0.3-6.6-0.9c-2.2-0.6-4.1-1.6-5.8-3c-1.7-1.4-3-3.3-4.1-5.7c-1-2.4-1.6-5.4-1.6-9.1c0-3,0.5-5.6,1.4-7.7
				c0.9-2.1,2.2-3.9,3.7-5.4c1.5-1.4,3.3-2.5,5.2-3.1c1.9-0.7,3.9-1,6-1c2.7,0,4.9,0.4,6.8,1.2c1.8,0.8,3.4,1.9,4.5,3.3
				c1.2,1.4,2,3,2.5,4.8c0.5,1.8,0.8,3.7,0.8,5.7v1c0,0.4,0,0.8,0,1.2c0,0.4-0.1,0.8-0.1,1.2c0,0.4-0.1,0.7-0.1,1h-20.9
				c0.2,2.6,1,4.8,2.4,6.5C1138.8,41.7,1141,42.5,1144.1,42.5"/>
			<path class="st4" d="M1184.3,32.1h-1c-0.3,0-0.7,0-1,0.1c-1.2,0.1-2.4,0.2-3.5,0.5c-1.2,0.2-2.2,0.5-3.1,1
				c-0.9,0.5-1.6,1.1-2.2,1.8c-0.6,0.8-0.9,1.7-0.9,2.9c0,1.3,0.4,2.5,1.1,3.4c0.8,0.9,2,1.4,3.8,1.4c0.9,0,1.7-0.1,2.6-0.4
				c0.8-0.2,1.5-0.5,2.1-0.9c0.6-0.4,1.1-0.8,1.5-1.2c0.4-0.4,0.5-0.9,0.5-1.2V32.1z M1193.4,40.3c0,3.7,0.5,6.4,1.6,8.2
				c-0.8,0.3-1.6,0.6-2.4,0.7c-0.7,0.1-1.5,0.2-2.3,0.2c-1.7,0-3-0.3-3.9-1c-0.9-0.7-1.4-1.6-1.7-2.9c-1,1.1-2.4,2-4.1,2.8
				c-1.7,0.8-3.8,1.1-6.3,1.1c-1.3,0-2.6-0.2-3.8-0.5c-1.3-0.4-2.4-0.9-3.5-1.7c-1-0.8-1.9-1.9-2.6-3.2c-0.7-1.4-1-3-1-4.9
				c0-2.4,0.6-4.4,1.7-5.9c1.2-1.5,2.6-2.7,4.4-3.6c1.8-0.9,3.7-1.5,5.7-1.8c2-0.3,3.9-0.5,5.6-0.6c0.6-0.1,1.1-0.1,1.7-0.1h1.5
				v-1.3c0-1.8-0.5-3.1-1.5-3.8s-2.5-1.1-4.7-1.1c-2,0-3.8,0.3-5.4,1c-1.6,0.7-3.1,1.4-4.7,2.3c-0.7-0.8-1.2-1.7-1.6-2.7
				c-0.4-1-0.6-1.7-0.6-2.2c0-0.6,0.4-1.2,1.1-1.9c0.7-0.6,1.7-1.2,3-1.7c1.3-0.5,2.7-0.9,4.4-1.2c1.7-0.3,3.4-0.5,5.3-0.5
				c2.6,0,4.7,0.3,6.5,0.8c1.8,0.5,3.2,1.3,4.3,2.4c1.1,1.1,1.9,2.5,2.4,4.1c0.5,1.6,0.7,3.5,0.7,5.7V40.3z"/>
			<path class="st4" d="M1205.3,43.4c-0.3-0.9-0.6-1.9-0.6-3c-0.1-1-0.1-2.1-0.1-3.1v-33l1.1-0.2c0.3,0,0.7-0.1,1.1-0.1
				c0.4,0,0.8,0,1.1,0c0.8,0,1.5,0.1,2.3,0.2c0.8,0.2,1.4,0.4,2.1,0.9c0.6,0.4,1.1,1,1.5,1.7c0.4,0.7,0.6,1.7,0.6,2.9v5h10V22h-10
				v15.2c0,3.3,1.4,5,4.1,5c0.7,0,1.3-0.1,1.9-0.3c0.6-0.2,1.1-0.5,1.6-0.7c0.5-0.3,0.9-0.5,1.2-0.8c0.3-0.3,0.6-0.5,0.7-0.7
				c0.7,1,1.3,2,1.6,2.7c0.4,0.7,0.6,1.5,0.6,2.1c0,0.6-0.2,1.2-0.7,1.8c-0.5,0.6-1.2,1.1-2.1,1.6c-0.9,0.5-2,0.9-3.3,1.2
				c-1.3,0.3-2.7,0.5-4.2,0.5c-3,0-5.3-0.6-6.9-1.7C1207.1,46.8,1205.9,45.3,1205.3,43.4"/>
			<path class="st4" d="M1254.2,28.1c0-2.3-0.5-4.1-1.3-5.6c-0.9-1.4-2.5-2.1-4.7-2.1c-2,0-3.6,0.7-4.7,2c-1.1,1.3-1.7,3.2-1.7,5.6
				H1254.2z M1251,42.5c1.2,0,2.2-0.1,3.1-0.4c0.9-0.2,1.7-0.6,2.4-1c0.7-0.4,1.3-0.8,1.8-1.2c0.5-0.5,1-0.9,1.4-1.2
				c0.6,0.7,1.2,1.6,1.8,2.7c0.6,1.1,0.9,2,0.9,2.7c0,1-0.6,2-1.8,2.8c-1,0.8-2.4,1.4-4.2,2c-1.8,0.5-4,0.8-6.4,0.8
				c-2.2,0-4.4-0.3-6.6-0.9c-2.2-0.6-4.1-1.6-5.8-3c-1.7-1.4-3-3.3-4.1-5.7c-1-2.4-1.6-5.4-1.6-9.1c0-3,0.5-5.6,1.4-7.7
				c0.9-2.1,2.2-3.9,3.7-5.4c1.5-1.4,3.3-2.5,5.2-3.1c1.9-0.7,3.9-1,6-1c2.7,0,4.9,0.4,6.8,1.2c1.8,0.8,3.3,1.9,4.5,3.3
				c1.2,1.4,2,3,2.5,4.8c0.5,1.8,0.8,3.7,0.8,5.7v1c0,0.4,0,0.8,0,1.2c0,0.4,0,0.8-0.1,1.2c0,0.4-0.1,0.7-0.1,1h-20.9
				c0.2,2.6,1,4.8,2.4,6.5S1247.9,42.5,1251,42.5"/>
			<path class="st4" d="M1282.7,44.3c0,1.5-0.5,2.8-1.4,3.8c-1,1-2.2,1.5-3.8,1.5c-1.6,0-2.8-0.5-3.8-1.5c-1-1-1.5-2.3-1.5-3.8
				c0-1.5,0.5-2.8,1.5-3.7c1-1,2.2-1.5,3.8-1.5c1.5,0,2.8,0.5,3.8,1.5C1282.2,41.5,1282.7,42.8,1282.7,44.3"/>
		</g>
		<g>
			<path class="st4" d="M1086.4,130c-0.3,0.3-0.7,0.6-1.4,1.1c-0.6,0.4-1.5,0.9-2.6,1.3c-1.1,0.4-2.4,0.8-4,1.1
				c-1.5,0.3-3.3,0.5-5.3,0.5c-3.8,0-7.2-0.6-10-1.9c-2.8-1.2-5.1-2.9-6.9-5.2c-1.8-2.2-3.2-4.8-4-7.8c-0.9-3-1.3-6.3-1.3-9.9
				c0-3.6,0.5-6.9,1.4-10c0.9-3.1,2.3-5.7,4.2-7.9c1.8-2.2,4.2-4,6.9-5.2c2.8-1.2,6-1.9,9.8-1.9c1.8,0,3.5,0.2,5,0.5
				c1.5,0.3,2.8,0.7,3.9,1.2c1.1,0.4,2,0.9,2.8,1.4c0.7,0.5,1.3,0.9,1.7,1.3c0.4,0.4,0.8,0.8,1.1,1.3c0.3,0.5,0.5,1.1,0.5,1.7
				c0,0.9-0.4,1.9-1.1,2.8c-0.7,0.9-1.5,1.8-2.3,2.6c-0.6-0.6-1.2-1.1-1.9-1.7c-0.7-0.6-1.5-1.1-2.4-1.6c-0.9-0.5-1.9-0.8-3-1.1
				c-1.1-0.3-2.4-0.5-3.7-0.5c-2.4,0-4.4,0.5-6.1,1.5c-1.6,1-3,2.2-4,3.8c-1,1.6-1.7,3.4-2.1,5.4c-0.4,2-0.6,4.1-0.6,6.1
				c0,2.2,0.2,4.4,0.6,6.4c0.4,2,1.2,3.8,2.2,5.4c1,1.6,2.4,2.8,4.1,3.8c1.7,1,3.8,1.4,6.3,1.4c1.3,0,2.5-0.2,3.7-0.5
				c1.1-0.3,2.1-0.7,2.9-1.2c0.9-0.5,1.6-1,2.2-1.5c0.6-0.5,1.2-1,1.6-1.4c0.3,0.3,0.6,0.7,1,1.2c0.4,0.5,0.7,1,1.1,1.5
				c0.3,0.5,0.6,1,0.9,1.6c0.2,0.5,0.4,1,0.4,1.4c0,0.6-0.1,1.1-0.4,1.6C1087.3,129,1087,129.5,1086.4,130"/>
			<path class="st4" d="M1119.3,115.8c0-1.3-0.1-2.5-0.3-3.8c-0.2-1.3-0.5-2.4-1.1-3.3c-0.5-0.9-1.2-1.7-2.1-2.3
				c-0.9-0.6-2-0.9-3.4-0.9c-1.4,0-2.5,0.3-3.4,0.9c-0.9,0.6-1.7,1.4-2.2,2.4c-0.5,1-0.9,2.1-1.2,3.3c-0.2,1.2-0.4,2.5-0.4,3.8
				c0,1.3,0.1,2.6,0.3,3.8c0.2,1.3,0.6,2.4,1.1,3.4c0.5,1,1.2,1.8,2.2,2.5c0.9,0.6,2.1,0.9,3.4,0.9c1.4,0,2.6-0.3,3.5-0.9
				c0.9-0.6,1.6-1.4,2.2-2.5c0.5-1,0.9-2.2,1.1-3.4C1119.2,118.4,1119.3,117.1,1119.3,115.8 M1129,115.7c0,2.4-0.3,4.7-0.9,6.8
				c-0.6,2.2-1.6,4.1-2.9,5.8c-1.3,1.7-3.1,3-5.2,4c-2.1,1-4.7,1.5-7.8,1.5s-5.6-0.5-7.7-1.5c-2.1-1-3.8-2.3-5.2-3.9
				c-1.3-1.6-2.3-3.5-2.9-5.7c-0.6-2.2-0.9-4.4-0.9-6.8c0-2.4,0.4-4.7,1.1-6.9c0.7-2.1,1.8-4,3.2-5.7c1.4-1.6,3.2-2.9,5.3-3.9
				c2.1-1,4.6-1.4,7.5-1.4c3,0,5.5,0.5,7.6,1.4c2.1,0.9,3.8,2.2,5.1,3.8c1.3,1.6,2.2,3.5,2.8,5.6
				C1128.7,111.1,1129,113.4,1129,115.7"/>
			<path class="st4" d="M1147.7,115.9c0,1.7,0.1,3.2,0.4,4.5c0.2,1.4,0.6,2.5,1.2,3.4c0.6,1,1.3,1.7,2.3,2.2c1,0.5,2.2,0.8,3.6,0.8
				c1.4,0,2.6-0.3,3.5-0.9c1-0.6,1.5-1.4,1.5-2.4v-16c-0.4-0.4-1-0.8-2-1.4c-0.9-0.5-2-0.8-3.2-0.8c-2.5,0-4.3,0.9-5.5,2.7
				C1148.2,109.9,1147.7,112.5,1147.7,115.9 M1163.4,132.7c-0.8,0-1.4-0.3-1.9-0.8c-0.5-0.5-0.7-1.2-0.7-2.1
				c-0.7,0.8-1.8,1.6-3.4,2.5c-1.6,0.8-3.6,1.3-6.1,1.3c-1.8,0-3.5-0.3-5.1-0.9c-1.6-0.6-3.1-1.5-4.4-2.8c-1.3-1.3-2.3-3.1-3.1-5.3
				c-0.8-2.2-1.1-4.9-1.1-8.2c0-3.3,0.4-6.1,1.2-8.4c0.8-2.3,1.8-4.2,3.1-5.7c1.3-1.4,2.8-2.5,4.5-3.2c1.7-0.7,3.4-1,5.3-1
				c2.1,0,3.9,0.4,5.3,1.1c1.4,0.7,2.4,1.5,3.1,2.2V82.6c0.1,0,0.5-0.1,1.1-0.2c0.7-0.1,1.4-0.1,2.1-0.1c0.8,0,1.5,0.1,2.3,0.2
				c0.8,0.1,1.5,0.4,2.1,0.8c0.6,0.4,1.1,1,1.5,1.7c0.4,0.7,0.6,1.7,0.6,2.9v44.7H1163.4z"/>
			<path class="st4" d="M1202,112.2c0-2.3-0.4-4.1-1.3-5.6c-0.9-1.4-2.5-2.1-4.7-2.1c-2,0-3.6,0.7-4.7,2c-1.1,1.3-1.7,3.2-1.7,5.6
				H1202z M1198.8,126.7c1.2,0,2.2-0.1,3.1-0.4c0.9-0.2,1.7-0.6,2.4-1c0.7-0.4,1.3-0.8,1.9-1.2c0.5-0.5,1-0.9,1.4-1.2
				c0.6,0.7,1.2,1.6,1.8,2.7c0.6,1.1,0.9,2,0.9,2.7c0,1-0.6,2-1.8,2.8c-1,0.8-2.4,1.4-4.2,2c-1.8,0.5-4,0.8-6.4,0.8
				c-2.2,0-4.4-0.3-6.6-0.9c-2.2-0.6-4.1-1.6-5.8-3c-1.7-1.4-3.1-3.3-4.1-5.7c-1-2.4-1.6-5.4-1.6-9.1c0-3,0.5-5.6,1.4-7.7
				c0.9-2.1,2.2-3.9,3.7-5.4c1.5-1.4,3.3-2.5,5.2-3.1c1.9-0.7,3.9-1,6-1c2.7,0,4.9,0.4,6.8,1.2c1.8,0.8,3.3,1.9,4.5,3.3
				c1.2,1.4,2,3,2.5,4.8c0.5,1.8,0.8,3.7,0.8,5.7v1c0,0.4,0,0.8,0,1.2c0,0.4,0,0.8-0.1,1.2c0,0.4-0.1,0.7-0.1,1h-20.9
				c0.2,2.6,1,4.8,2.4,6.5C1193.4,125.8,1195.7,126.7,1198.8,126.7"/>
			<path class="st4" d="M1230.5,128.4c0,1.5-0.5,2.8-1.4,3.8c-0.9,1-2.2,1.5-3.8,1.5c-1.6,0-2.8-0.5-3.8-1.5c-1-1-1.5-2.3-1.5-3.8
				c0-1.5,0.5-2.8,1.5-3.7c1-1,2.3-1.5,3.8-1.5s2.8,0.5,3.8,1.5C1230,125.7,1230.5,126.9,1230.5,128.4"/>
		</g>
		<g>
			<path class="st4" d="M1076,207.3c2.3,0,3.8,0.5,4.7,1.6c0.8,1,1.3,2.2,1.3,3.5c0,0.5,0,1,0,1.3c0,0.3-0.1,0.7-0.1,1.2H1051v-47.6
				h29.6c0.1,0.5,0.2,1,0.2,1.3c0,0.4,0,0.8,0,1.3c0,1.7-0.4,2.9-1.3,3.7c-0.8,0.8-2.4,1.2-4.8,1.2h-14v11.7h15.1v7.6h-15.1v13.2
				H1076z"/>
			<path class="st4" d="M1100.2,214.8h-9.7v-33.6l0.9-0.1c0.3-0.1,0.6-0.1,1-0.1c0.4,0,0.8,0,1.3,0c1.5,0,2.8,0.3,4,0.8
				c1.1,0.6,1.8,1.5,2.1,2.9c0.8-1.1,2-2.1,3.7-3c1.7-0.9,3.9-1.4,6.8-1.4c3.4,0,5.9,0.7,7.5,2c1.6,1.3,2.7,3.1,3.1,5.3
				c0.2,1.1,0.4,2.3,0.5,3.6c0.1,1.3,0.1,2.5,0.1,3.8v20h-9.7v-19.6c0-1.1,0-2-0.1-2.9c-0.1-0.9-0.3-1.7-0.6-2.3
				c-0.3-0.6-0.8-1.1-1.5-1.5c-0.7-0.3-1.6-0.5-2.9-0.5c-1.8,0-3.3,0.4-4.5,1.1c-1.3,0.7-1.9,1.6-1.9,2.7V214.8z"/>
			<path class="st4" d="M1142.5,169.8c0,1.5-0.5,2.8-1.5,3.7c-1,0.9-2.2,1.4-3.7,1.4c-1.5,0-2.7-0.5-3.7-1.4c-1-0.9-1.5-2.2-1.5-3.7
				c0-1.5,0.5-2.8,1.5-3.7c1-1,2.2-1.5,3.7-1.5c1.4,0,2.6,0.5,3.7,1.5C1142,167,1142.5,168.3,1142.5,169.8 M1132.8,181.2
				c0.1-0.1,0.5-0.1,1.1-0.2c0.7-0.1,1.4-0.1,2.1-0.1s1.5,0.1,2.3,0.2c0.8,0.1,1.4,0.4,2.1,0.8c0.6,0.4,1.1,1,1.5,1.7
				c0.4,0.7,0.6,1.7,0.6,2.9v29.1c0,0.7,0,1.4-0.1,2.1c-0.1,2.8-0.6,5-1.5,6.7c-0.9,1.7-1.9,3.1-3.1,4c-1.2,1-2.4,1.6-3.7,2
				c-1.3,0.4-2.5,0.5-3.5,0.5c-2.1,0-3.4-0.6-4.1-1.7c-0.6-1.1-0.9-2.7-0.9-4.7V224c1.5-0.1,2.7-0.3,3.6-0.6
				c0.9-0.3,1.7-0.8,2.2-1.4c0.5-0.6,0.9-1.4,1.1-2.3c0.2-0.9,0.3-2,0.3-3.2V181.2z"/>
			<path class="st4" d="M1176.1,197.9c0-1.3-0.1-2.5-0.3-3.8c-0.2-1.3-0.5-2.4-1.1-3.3c-0.5-0.9-1.2-1.7-2.1-2.3
				c-0.9-0.6-2-0.9-3.4-0.9c-1.4,0-2.5,0.3-3.4,0.9c-0.9,0.6-1.7,1.4-2.2,2.4c-0.5,1-0.9,2.1-1.2,3.3c-0.2,1.2-0.4,2.5-0.4,3.8
				c0,1.3,0.1,2.6,0.3,3.8c0.2,1.3,0.6,2.4,1.1,3.4c0.5,1,1.2,1.8,2.2,2.5c0.9,0.6,2.1,0.9,3.5,0.9c1.4,0,2.6-0.3,3.5-0.9
				c0.9-0.6,1.7-1.4,2.2-2.5c0.5-1,0.9-2.2,1.1-3.4C1176,200.5,1176.1,199.2,1176.1,197.9 M1185.8,197.8c0,2.4-0.3,4.7-0.9,6.8
				c-0.6,2.2-1.6,4.1-2.9,5.8c-1.3,1.7-3.1,3-5.2,4c-2.1,1-4.7,1.5-7.7,1.5c-3,0-5.6-0.5-7.7-1.5c-2.1-1-3.8-2.3-5.2-3.9
				c-1.3-1.6-2.3-3.5-2.9-5.7c-0.6-2.2-0.9-4.4-0.9-6.8c0-2.4,0.4-4.7,1.1-6.9c0.7-2.1,1.8-4,3.2-5.7c1.4-1.6,3.2-2.9,5.3-3.9
				c2.1-1,4.6-1.4,7.5-1.4c3,0,5.5,0.5,7.6,1.4c2.1,0.9,3.8,2.2,5.1,3.8c1.3,1.6,2.2,3.5,2.8,5.6
				C1185.5,193.2,1185.8,195.5,1185.8,197.8"/>
			<path class="st4" d="M1213.6,220.6c-0.9,3.1-2.5,5.6-4.7,7.5c-2.2,1.9-5.2,2.8-9.1,2.8c-2.1,0-3.9-0.3-5.3-0.9
				c-1.4-0.6-2.1-1.6-2.1-3.1c0-0.7,0.2-1.4,0.5-2.2c0.4-0.8,0.8-1.7,1.5-2.7c0.5,0.4,1.2,0.7,2.1,1c0.9,0.3,1.8,0.4,2.7,0.4
				c1.5,0,2.7-0.4,3.6-1.2c0.9-0.8,1.8-2.2,2.4-4.2l1.2-3.6h-4.4l-11-32.9c0.7-0.2,1.6-0.4,2.6-0.6c1-0.2,2-0.2,2.8-0.2
				c1.3,0,2.5,0.4,3.5,1.1c1,0.7,1.7,1.8,2.2,3.3l6.4,21.9l5.3-19.1c0.3-1,0.6-1.9,1-2.8c0.4-0.9,0.8-1.6,1.3-2.2
				c0.5-0.6,1.2-1.1,1.9-1.5c0.8-0.4,1.7-0.6,2.8-0.6c0.9,0,1.7,0.1,2.4,0.2c0.7,0.2,1.4,0.4,2.1,0.7L1213.6,220.6z"/>
			<path class="st4" d="M1240.5,210.5c0,1.5-0.5,2.8-1.4,3.8c-0.9,1-2.2,1.5-3.8,1.5c-1.6,0-2.8-0.5-3.8-1.5s-1.5-2.3-1.5-3.8
				c0-1.5,0.5-2.8,1.5-3.7c1-1,2.2-1.5,3.8-1.5c1.5,0,2.8,0.5,3.8,1.5C1240,207.8,1240.5,209,1240.5,210.5"/>
		</g>
	</g>
</g>
</svg>
